<svg 
 xmlns="http://www.w3.org/2000/svg"
 xmlns:xlink="http://www.w3.org/1999/xlink"
 width="39px" height="39px">
<rect  x="621" y="650" width="39" height="39" fill="rgb(46, 48, 58)" />
<path fill-rule="evenodd"  fill="rgb(228, 241, 254)"
 d="M19.500,0.565 C30.269,0.565 39.000,9.072 39.000,19.565 C39.000,30.058 30.269,38.565 19.500,38.565 C8.730,38.565 0.000,30.058 0.000,19.565 C0.000,9.072 8.730,0.565 19.500,0.565 Z"/>
<path fill-rule="evenodd"  fill="rgb(46, 48, 58)"
 d="M19.468,7.270 L20.123,7.270 L20.123,30.953 L19.468,30.953 L19.468,7.270 Z"/>
<path fill-rule="evenodd"  fill="rgb(46, 48, 58)"
 d="M19.918,30.965 L19.455,30.521 L30.373,20.042 L30.836,20.486 L19.918,30.965 Z"/>
<path fill-rule="evenodd"  fill="rgb(46, 48, 58)"
 d="M20.183,30.562 L19.716,31.010 L8.709,20.446 L9.176,19.997 L20.183,30.562 Z"/>
</svg>