<svg viewBox="0 0 512 512" xmlns="http://www.w3.org/2000/svg">
<path d="M32 396V116H176C215.764 116 252 148.236 252 188C252 212 240 236 216 244C248 256 260 283.659 260 308C260 355.496 224 396 176.504 396H32ZM96 348H162C182.987 348 200 330.987 200 310C200 289.013 182.987 272 162 272H96V348ZM96 224H162C178.569 224 192 210.569 192 194C192 177.431 178.569 164 162 164H96V224ZM280 284C280 216 328.366 180 384 180C436.509 180 480 222.665 480 272L479.775 300H336C336 328 353.558 352 384 352C408.13 352 418.841 340.744 424 328H479.775C479.775 356 440 396 384 396C336.459 396 280 368 280 284ZM336 264H424C424 240 406.333 224 384 224C357.868 224 339.775 240 336 264ZM436 128H324V156H436V128Z" fill="currentColor"/>
</svg>
