<?xml version="1.0" encoding="UTF-8"?><svg id="logo" xmlns="http://www.w3.org/2000/svg" viewBox="0 0 391.56 325.08"><path fill="currentColor" class="logo--path" d="M382.07,271.01c-34.09,34-57.94,12.34-61.93-30.32-5.8-45.85,3.14-87.11-46.55-85.16,0,0,42.76-15.86,39.37-76.99C308.6-.07,200.97,.5,200.97,.5c-58.38,0-112.88,37.6-89.43,102.74,8.47,23.53,38.63,44.68,61,57.72,73.77,43,42.11,126.73-41.7,141.11C23.24,309.61-14.77,209.79,43.49,145.9c18.73-20.54-5.08-13.52-23.62,10.5-45.63,59.11-8.44,162.62,88.37,167.97,100.92,5.58,163.6-103.24,87.55-161.82,38.13,1.51,69.49,5.21,76.06,58.59,12.31,100.07,69.68,107.68,102.9,73.17,12.58-13.07,25.48-41.4,7.33-23.31Zm-190.47-123.08c-39.46,0-73.61-36.92-72.02-71.96,2.01-44.32,35.68-61.93,71.26-61.93,51.89,0,72.71,32.11,72.71,67.7s-23.51,66.19-71.96,66.19Z"/></svg>